<svg xmlns="http://www.w3.org/2000/svg" xmlns:xlink="http://www.w3.org/1999/xlink" width="1920" zoomAndPan="magnify" viewBox="0 0 1440 809.999993" height="1080" preserveAspectRatio="xMidYMid meet" version="1.0"><path fill="#eadace" d="M 785.71875 91.082031 L 770.480469 85.210938 L 764.59375 100.449219 L 765.464844 84.140625 L 749.15625 83.25 L 764.9375 79.035156 L 760.746094 63.253906 L 769.625 76.960938 L 783.34375 68.097656 L 773.050781 80.773438 Z M 785.71875 91.082031 " fill-opacity="1" fill-rule="nonzero"/><path fill="#eadace" d="M 904.734375 108.933594 L 895.664062 105.441406 L 892.164062 114.511719 L 892.675781 104.800781 L 882.976562 104.277344 L 892.363281 101.765625 L 889.867188 92.371094 L 895.160156 100.53125 L 903.316406 95.253906 L 897.195312 102.796875 Z M 904.734375 108.933594 " fill-opacity="1" fill-rule="nonzero"/><path fill="#eadace" d="M 1104.269531 278.878906 L 1088.460938 282.972656 L 1092.539062 298.789062 L 1083.753906 285.019531 L 1069.972656 293.785156 L 1080.363281 281.175781 L 1067.765625 270.78125 L 1082.964844 276.761719 L 1088.957031 261.566406 L 1087.96875 277.867188 Z M 1104.269531 278.878906 " fill-opacity="1" fill-rule="nonzero"/><path fill="#eadace" d="M 1339.023438 623.632812 L 1315.550781 629.714844 L 1321.613281 653.195312 L 1308.570312 632.753906 L 1288.109375 645.769531 L 1303.527344 627.054688 L 1284.820312 611.617188 L 1307.390625 620.492188 L 1316.289062 597.929688 L 1314.824219 622.136719 Z M 1339.023438 623.632812 " fill-opacity="1" fill-rule="nonzero"/><path fill="#eadace" d="M 1264.710938 219.34375 L 1251.875 222.671875 L 1255.191406 235.507812 L 1248.0625 224.335938 L 1236.878906 231.449219 L 1245.300781 221.214844 L 1235.082031 212.777344 L 1247.417969 217.628906 L 1252.28125 205.296875 L 1251.476562 218.53125 Z M 1264.710938 219.34375 " fill-opacity="1" fill-rule="nonzero"/><path fill="#eadace" d="M 773.394531 231.203125 L 767.007812 223.871094 L 759.675781 230.25 L 764.671875 221.914062 L 756.335938 216.910156 L 765.808594 219.078125 L 768 209.609375 L 768.859375 219.292969 L 778.539062 218.445312 L 769.597656 222.253906 Z M 773.394531 231.203125 " fill-opacity="1" fill-rule="nonzero"/><path fill="#eadace" d="M 1224.414062 103.445312 L 1218.035156 96.113281 L 1210.695312 102.492188 L 1215.691406 94.15625 L 1207.359375 89.144531 L 1216.835938 91.320312 L 1219.019531 81.851562 L 1219.878906 91.535156 L 1229.558594 90.6875 L 1220.617188 94.496094 Z M 1224.414062 103.445312 " fill-opacity="1" fill-rule="nonzero"/><path fill="#eadace" d="M 867.230469 495.953125 L 860.851562 488.628906 L 853.511719 495.003906 L 858.507812 486.664062 L 850.175781 481.660156 L 859.652344 483.835938 L 861.835938 474.363281 L 862.695312 484.042969 L 872.382812 483.199219 L 863.4375 487.003906 Z M 867.230469 495.953125 " fill-opacity="1" fill-rule="nonzero"/><path fill="#eadace" d="M 1091.972656 157.433594 L 1085.585938 150.109375 L 1078.253906 156.484375 L 1083.25 148.144531 L 1074.917969 143.140625 L 1084.386719 145.316406 L 1086.578125 135.84375 L 1087.433594 145.523438 L 1097.117188 144.679688 L 1088.171875 148.484375 Z M 1091.972656 157.433594 " fill-opacity="1" fill-rule="nonzero"/><path fill="#eadace" d="M 1348.214844 544.144531 L 1341.828125 536.808594 L 1334.492188 543.191406 L 1339.492188 534.855469 L 1331.160156 529.84375 L 1340.628906 532.019531 L 1342.816406 522.550781 L 1343.675781 532.230469 L 1353.359375 531.386719 L 1344.414062 535.195312 Z M 1348.214844 544.144531 " fill-opacity="1" fill-rule="nonzero"/><path fill="#eadace" d="M 937.949219 188.117188 L 936.566406 204.394531 L 952.835938 205.796875 L 936.933594 209.503906 L 940.625 225.414062 L 932.183594 211.433594 L 918.1875 219.863281 L 928.875 207.515625 L 916.539062 196.8125 L 931.582031 203.15625 Z M 937.949219 188.117188 " fill-opacity="1" fill-rule="nonzero"/><path fill="#eadace" d="M 810.121094 631.8125 L 813.71875 647.742188 L 829.65625 644.152344 L 815.617188 652.503906 L 823.953125 666.550781 L 811.671875 655.785156 L 800.890625 668.046875 L 807.339844 653.042969 L 792.339844 646.574219 L 808.601562 648.074219 Z M 810.121094 631.8125 " fill-opacity="1" fill-rule="nonzero"/><path fill="#eadace" d="M 991.808594 40.816406 L 990.992188 50.496094 L 1000.671875 51.335938 L 991.203125 53.546875 L 993.40625 63.007812 L 988.375 54.691406 L 980.050781 59.707031 L 986.414062 52.355469 L 979.066406 45.984375 L 988.023438 49.765625 Z M 991.808594 40.816406 " fill-opacity="1" fill-rule="nonzero"/><path fill="#eadace" d="M 828.390625 16.480469 L 819.355469 20.070312 L 822.933594 29.105469 L 816.734375 21.625 L 809.242188 27.820312 L 814.4375 19.609375 L 806.234375 14.398438 L 815.648438 16.808594 L 818.066406 7.394531 L 818.691406 17.09375 Z M 828.390625 16.480469 " fill-opacity="1" fill-rule="nonzero"/><path fill="#eadace" d="M 1398.019531 100.289062 L 1393.109375 84.714844 L 1377.527344 89.605469 L 1390.820312 80.121094 L 1381.351562 66.8125 L 1394.480469 76.527344 L 1404.214844 63.414062 L 1399.03125 78.902344 L 1414.515625 84.101562 L 1398.179688 83.960938 Z M 1398.019531 100.289062 " fill-opacity="1" fill-rule="nonzero"/><path fill="#eadace" d="M 1129.734375 44.269531 L 1124.824219 28.691406 L 1109.246094 33.582031 L 1122.542969 24.101562 L 1113.074219 10.792969 L 1126.203125 20.507812 L 1135.929688 7.394531 L 1130.746094 22.882812 L 1146.230469 28.082031 L 1129.902344 27.941406 Z M 1129.734375 44.269531 " fill-opacity="1" fill-rule="nonzero"/><path fill="#eadace" d="M 1397.207031 320.734375 L 1394.289062 311.464844 L 1385.011719 314.378906 L 1392.921875 308.734375 L 1387.292969 300.808594 L 1395.105469 306.59375 L 1400.894531 298.789062 L 1397.808594 308.003906 L 1407.023438 311.105469 L 1397.300781 311.019531 Z M 1397.207031 320.734375 " fill-opacity="1" fill-rule="nonzero"/><path fill="#eadace" d="M 1124.882812 424.363281 L 1126.632812 414.800781 L 1117.070312 413.042969 L 1126.707031 411.753906 L 1125.429688 402.117188 L 1129.636719 410.882812 L 1138.398438 406.683594 L 1131.363281 413.390625 L 1138.066406 420.4375 L 1129.507812 415.8125 Z M 1124.882812 424.363281 " fill-opacity="1" fill-rule="nonzero"/><path fill="#eadace" d="M 976.210938 584.132812 L 977.960938 574.570312 L 968.40625 572.816406 L 978.042969 571.523438 L 976.757812 561.890625 L 980.964844 570.652344 L 989.734375 566.453125 L 982.699219 573.160156 L 989.394531 580.207031 L 980.84375 575.582031 Z M 976.210938 584.132812 " fill-opacity="1" fill-rule="nonzero"/><path fill="#eadace" d="M 1175.542969 618.554688 L 1161.953125 627.617188 L 1170.996094 641.21875 L 1158.179688 631.09375 L 1148.039062 643.894531 L 1153.710938 628.578125 L 1138.398438 622.894531 L 1154.722656 623.554688 L 1155.398438 607.230469 L 1159.816406 622.960938 Z M 1175.542969 618.554688 " fill-opacity="1" fill-rule="nonzero"/><path fill="#eadace" d="M 1239.894531 302.507812 L 1231.414062 316.46875 L 1245.367188 324.957031 L 1229.472656 321.210938 L 1225.707031 337.109375 L 1224.355469 320.824219 L 1208.078125 322.15625 L 1223.136719 315.847656 L 1216.84375 300.777344 L 1227.503906 313.152344 Z M 1239.894531 302.507812 " fill-opacity="1" fill-rule="nonzero"/><path fill="#eadace" d="M 1126.761719 775.378906 L 1118.289062 789.339844 L 1132.238281 797.828125 L 1116.339844 794.082031 L 1112.574219 809.972656 L 1111.230469 793.699219 L 1094.945312 795.027344 L 1110.011719 788.714844 L 1103.71875 773.640625 L 1114.378906 786.019531 Z M 1126.761719 775.378906 " fill-opacity="1" fill-rule="nonzero"/><path fill="#eadace" d="M 1357.21875 360.371094 L 1349.132812 365.761719 L 1354.515625 373.851562 L 1346.890625 367.832031 L 1340.855469 375.449219 L 1344.230469 366.332031 L 1335.113281 362.953125 L 1344.828125 363.339844 L 1345.226562 353.628906 L 1347.855469 362.984375 Z M 1357.21875 360.371094 " fill-opacity="1" fill-rule="nonzero"/><path fill="#eadace" d="M 742.1875 518.265625 L 734.097656 523.65625 L 739.480469 531.753906 L 731.855469 525.726562 L 725.820312 533.34375 L 729.191406 524.226562 L 720.082031 520.847656 L 729.796875 521.238281 L 730.199219 511.523438 L 732.824219 520.886719 Z M 742.1875 518.265625 " fill-opacity="1" fill-rule="nonzero"/><path fill="#eadace" d="M 1303.257812 294.933594 L 1297.644531 291.726562 L 1294.429688 297.332031 L 1295.746094 291.003906 L 1289.417969 289.679688 L 1295.847656 288.980469 L 1295.15625 282.550781 L 1297.808594 288.449219 L 1303.707031 285.800781 L 1298.914062 290.144531 Z M 1303.257812 294.933594 " fill-opacity="1" fill-rule="nonzero"/><path fill="#eadace" d="M 1247.550781 451.644531 L 1243.597656 449.382812 L 1241.335938 453.335938 L 1242.261719 448.875 L 1237.808594 447.945312 L 1242.335938 447.445312 L 1241.84375 442.921875 L 1243.710938 447.074219 L 1247.863281 445.210938 L 1244.496094 448.269531 Z M 1247.550781 451.644531 " fill-opacity="1" fill-rule="nonzero"/><path fill="#eadace" d="M 973.117188 283.695312 L 969.164062 281.433594 L 966.902344 285.378906 L 967.828125 280.929688 L 963.375 279.988281 L 967.902344 279.496094 L 967.414062 274.972656 L 969.277344 279.125 L 973.4375 277.261719 L 970.0625 280.324219 Z M 973.117188 283.695312 " fill-opacity="1" fill-rule="nonzero"/><path fill="#eadace" d="M 786.4375 750.777344 L 782.484375 748.523438 L 780.222656 752.46875 L 781.148438 748.011719 L 776.695312 747.078125 L 781.222656 746.585938 L 780.730469 742.054688 L 782.597656 746.207031 L 786.75 744.34375 L 783.382812 747.40625 Z M 786.4375 750.777344 " fill-opacity="1" fill-rule="nonzero"/><path fill="#eadace" d="M 1389.730469 789.578125 L 1385.777344 787.316406 L 1383.507812 791.261719 L 1384.4375 786.804688 L 1379.980469 785.871094 L 1384.511719 785.378906 L 1384.019531 780.855469 L 1385.890625 785.007812 L 1390.042969 783.144531 L 1386.667969 786.199219 Z M 1389.730469 789.578125 " fill-opacity="1" fill-rule="nonzero"/><path fill="#eadace" d="M 836.351562 447.339844 L 830.734375 444.132812 L 827.519531 449.742188 L 828.835938 443.414062 L 822.507812 442.082031 L 828.9375 441.382812 L 828.246094 434.957031 L 830.902344 440.851562 L 836.796875 438.203125 L 832.011719 442.550781 Z M 836.351562 447.339844 " fill-opacity="1" fill-rule="nonzero"/><path fill="#eadace" d="M 1214.054688 556.527344 L 1208.445312 553.320312 L 1205.226562 558.921875 L 1206.550781 552.59375 L 1200.222656 551.269531 L 1206.640625 550.570312 L 1205.949219 544.144531 L 1208.605469 550.039062 L 1214.5 547.390625 L 1209.714844 551.734375 Z M 1214.054688 556.527344 " fill-opacity="1" fill-rule="nonzero"/><path fill="#eadace" d="M 1426.726562 634.546875 L 1418.933594 628.742188 L 1413.117188 636.535156 L 1416.230469 627.324219 L 1407.023438 624.203125 L 1416.746094 624.316406 L 1416.863281 614.597656 L 1419.765625 623.878906 L 1429.046875 620.992188 L 1421.117188 626.613281 Z M 1426.726562 634.546875 " fill-opacity="1" fill-rule="nonzero"/><path fill="#eadace" d="M 1303.710938 747.542969 L 1297.285156 748.222656 L 1297.957031 754.65625 L 1295.320312 748.75 L 1289.414062 751.382812 L 1294.214844 747.050781 L 1289.890625 742.25 L 1295.496094 745.46875 L 1298.722656 739.871094 L 1297.382812 746.199219 Z M 1303.710938 747.542969 " fill-opacity="1" fill-rule="nonzero"/><path fill="#eadace" d="M 923.683594 778.945312 L 917.257812 779.628906 L 917.929688 786.058594 L 915.292969 780.15625 L 909.390625 782.785156 L 914.1875 778.453125 L 909.863281 773.648438 L 915.46875 776.875 L 918.699219 771.28125 L 917.363281 777.601562 Z M 923.683594 778.945312 " fill-opacity="1" fill-rule="nonzero"/><path fill="#eadace" d="M 836.351562 178.792969 L 830.734375 175.585938 L 827.519531 181.195312 L 828.835938 174.867188 L 822.507812 173.539062 L 828.9375 172.839844 L 828.246094 166.410156 L 830.902344 172.308594 L 836.796875 169.660156 L 832.011719 174.003906 Z M 836.351562 178.792969 " fill-opacity="1" fill-rule="nonzero"/><path fill="#eadace" d="M 1030.441406 474.835938 L 1024.832031 471.621094 L 1021.613281 477.230469 L 1022.929688 470.902344 L 1016.601562 469.578125 L 1023.03125 468.871094 L 1022.339844 462.453125 L 1024.992188 468.347656 L 1030.886719 465.699219 L 1026.105469 470.042969 Z M 1030.441406 474.835938 " fill-opacity="1" fill-rule="nonzero"/><path fill="#eadace" d="M 1074.460938 714.425781 L 1068.84375 711.21875 L 1065.628906 716.828125 L 1066.945312 710.496094 L 1060.617188 709.171875 L 1067.046875 708.472656 L 1066.355469 702.042969 L 1069.003906 707.941406 L 1074.90625 705.292969 L 1070.113281 709.636719 Z M 1074.460938 714.425781 " fill-opacity="1" fill-rule="nonzero"/><path fill="#eadace" d="M 1348.953125 12.382812 L 1343.335938 9.175781 L 1340.125 14.785156 L 1341.441406 8.457031 L 1335.113281 7.125 L 1341.539062 6.429688 L 1340.847656 0 L 1343.503906 5.894531 L 1349.398438 3.246094 L 1344.613281 7.59375 Z M 1348.953125 12.382812 " fill-opacity="1" fill-rule="nonzero"/><path fill="#eadace" d="M 781.273438 349.492188 L 775.664062 346.285156 L 772.445312 351.894531 L 773.769531 345.558594 L 767.441406 344.234375 L 773.867188 343.535156 L 773.167969 337.109375 L 775.824219 343.003906 L 781.71875 340.355469 L 776.9375 344.699219 Z M 781.273438 349.492188 " fill-opacity="1" fill-rule="nonzero"/><path fill="#eadace" d="M 893.183594 337.5625 L 884.746094 332.738281 L 879.90625 341.167969 L 881.890625 331.652344 L 872.382812 329.664062 L 882.042969 328.605469 L 881 318.941406 L 884.984375 327.804688 L 893.855469 323.828125 L 886.65625 330.359375 Z M 893.183594 337.5625 " fill-opacity="1" fill-rule="nonzero"/><path fill="#eadace" d="M 65.71875 91.082031 L 50.480469 85.210938 L 44.59375 100.449219 L 45.464844 84.140625 L 29.15625 83.25 L 44.9375 79.035156 L 40.746094 63.253906 L 49.625 76.960938 L 63.34375 68.097656 L 53.050781 80.773438 Z M 65.71875 91.082031 " fill-opacity="1" fill-rule="nonzero"/><path fill="#eadace" d="M 184.734375 108.933594 L 175.664062 105.441406 L 172.164062 114.511719 L 172.675781 104.800781 L 162.976562 104.277344 L 172.363281 101.765625 L 169.867188 92.371094 L 175.160156 100.53125 L 183.316406 95.253906 L 177.195312 102.796875 Z M 184.734375 108.933594 " fill-opacity="1" fill-rule="nonzero"/><path fill="#eadace" d="M 384.269531 278.878906 L 368.460938 282.972656 L 372.539062 298.789062 L 363.753906 285.019531 L 349.972656 293.785156 L 360.363281 281.175781 L 347.765625 270.78125 L 362.964844 276.761719 L 368.957031 261.566406 L 367.96875 277.867188 Z M 384.269531 278.878906 " fill-opacity="1" fill-rule="nonzero"/><path fill="#eadace" d="M 619.023438 623.632812 L 595.550781 629.714844 L 601.613281 653.195312 L 588.570312 632.753906 L 568.109375 645.769531 L 583.527344 627.054688 L 564.820312 611.617188 L 587.390625 620.492188 L 596.289062 597.929688 L 594.824219 622.136719 Z M 619.023438 623.632812 " fill-opacity="1" fill-rule="nonzero"/><path fill="#eadace" d="M 544.710938 219.34375 L 531.875 222.671875 L 535.191406 235.507812 L 528.0625 224.335938 L 516.878906 231.449219 L 525.300781 221.214844 L 515.082031 212.777344 L 527.417969 217.628906 L 532.28125 205.296875 L 531.476562 218.53125 Z M 544.710938 219.34375 " fill-opacity="1" fill-rule="nonzero"/><path fill="#eadace" d="M 53.394531 231.203125 L 47.007812 223.871094 L 39.675781 230.25 L 44.671875 221.914062 L 36.335938 216.910156 L 45.808594 219.078125 L 48 209.609375 L 48.859375 219.292969 L 58.539062 218.445312 L 49.597656 222.253906 Z M 53.394531 231.203125 " fill-opacity="1" fill-rule="nonzero"/><path fill="#eadace" d="M 504.414062 103.445312 L 498.035156 96.113281 L 490.695312 102.492188 L 495.691406 94.15625 L 487.359375 89.144531 L 496.835938 91.320312 L 499.019531 81.851562 L 499.878906 91.535156 L 509.558594 90.6875 L 500.617188 94.496094 Z M 504.414062 103.445312 " fill-opacity="1" fill-rule="nonzero"/><path fill="#eadace" d="M 147.230469 495.953125 L 140.851562 488.628906 L 133.511719 495.003906 L 138.507812 486.664062 L 130.175781 481.660156 L 139.652344 483.835938 L 141.835938 474.363281 L 142.695312 484.042969 L 152.382812 483.199219 L 143.4375 487.003906 Z M 147.230469 495.953125 " fill-opacity="1" fill-rule="nonzero"/><path fill="#eadace" d="M 371.972656 157.433594 L 365.585938 150.109375 L 358.253906 156.484375 L 363.25 148.144531 L 354.917969 143.140625 L 364.386719 145.316406 L 366.578125 135.84375 L 367.433594 145.523438 L 377.117188 144.679688 L 368.171875 148.484375 Z M 371.972656 157.433594 " fill-opacity="1" fill-rule="nonzero"/><path fill="#eadace" d="M 628.214844 544.144531 L 621.828125 536.808594 L 614.492188 543.191406 L 619.492188 534.855469 L 611.160156 529.84375 L 620.628906 532.019531 L 622.816406 522.550781 L 623.675781 532.230469 L 633.359375 531.386719 L 624.414062 535.195312 Z M 628.214844 544.144531 " fill-opacity="1" fill-rule="nonzero"/><path fill="#eadace" d="M 217.949219 188.117188 L 216.566406 204.394531 L 232.835938 205.796875 L 216.933594 209.503906 L 220.625 225.414062 L 212.183594 211.433594 L 198.1875 219.863281 L 208.875 207.515625 L 196.539062 196.8125 L 211.582031 203.15625 Z M 217.949219 188.117188 " fill-opacity="1" fill-rule="nonzero"/><path fill="#eadace" d="M 90.121094 631.8125 L 93.71875 647.742188 L 109.65625 644.152344 L 95.617188 652.503906 L 103.953125 666.550781 L 91.671875 655.785156 L 80.890625 668.046875 L 87.339844 653.042969 L 72.339844 646.574219 L 88.601562 648.074219 Z M 90.121094 631.8125 " fill-opacity="1" fill-rule="nonzero"/><path fill="#eadace" d="M 271.808594 40.816406 L 270.992188 50.496094 L 280.671875 51.335938 L 271.203125 53.546875 L 273.40625 63.007812 L 268.375 54.691406 L 260.050781 59.707031 L 266.414062 52.355469 L 259.066406 45.984375 L 268.023438 49.765625 Z M 271.808594 40.816406 " fill-opacity="1" fill-rule="nonzero"/><path fill="#eadace" d="M 108.390625 16.480469 L 99.355469 20.070312 L 102.9375 29.105469 L 96.734375 21.625 L 89.242188 27.820312 L 94.4375 19.609375 L 86.234375 14.398438 L 95.648438 16.808594 L 98.066406 7.394531 L 98.691406 17.09375 Z M 108.390625 16.480469 " fill-opacity="1" fill-rule="nonzero"/><path fill="#eadace" d="M 678.019531 100.289062 L 673.109375 84.714844 L 657.527344 89.605469 L 670.820312 80.121094 L 661.351562 66.8125 L 674.480469 76.527344 L 684.214844 63.414062 L 679.03125 78.902344 L 694.515625 84.101562 L 678.179688 83.960938 Z M 678.019531 100.289062 " fill-opacity="1" fill-rule="nonzero"/><path fill="#eadace" d="M 409.734375 44.269531 L 404.824219 28.691406 L 389.246094 33.582031 L 402.542969 24.101562 L 393.074219 10.792969 L 406.203125 20.507812 L 415.929688 7.394531 L 410.746094 22.882812 L 426.230469 28.082031 L 409.902344 27.941406 Z M 409.734375 44.269531 " fill-opacity="1" fill-rule="nonzero"/><path fill="#eadace" d="M 677.207031 320.734375 L 674.289062 311.464844 L 665.011719 314.378906 L 672.921875 308.734375 L 667.292969 300.808594 L 675.105469 306.59375 L 680.894531 298.789062 L 677.808594 308.003906 L 687.023438 311.105469 L 677.300781 311.019531 Z M 677.207031 320.734375 " fill-opacity="1" fill-rule="nonzero"/><path fill="#eadace" d="M 404.882812 424.363281 L 406.632812 414.800781 L 397.070312 413.042969 L 406.707031 411.753906 L 405.429688 402.117188 L 409.636719 410.882812 L 418.398438 406.683594 L 411.363281 413.390625 L 418.066406 420.4375 L 409.507812 415.8125 Z M 404.882812 424.363281 " fill-opacity="1" fill-rule="nonzero"/><path fill="#eadace" d="M 256.210938 584.132812 L 257.960938 574.570312 L 248.40625 572.816406 L 258.042969 571.523438 L 256.757812 561.890625 L 260.964844 570.652344 L 269.734375 566.453125 L 262.699219 573.160156 L 269.394531 580.207031 L 260.84375 575.582031 Z M 256.210938 584.132812 " fill-opacity="1" fill-rule="nonzero"/><path fill="#eadace" d="M 455.542969 618.554688 L 441.953125 627.617188 L 450.996094 641.21875 L 438.179688 631.09375 L 428.039062 643.894531 L 433.710938 628.578125 L 418.398438 622.894531 L 434.722656 623.554688 L 435.398438 607.230469 L 439.816406 622.960938 Z M 455.542969 618.554688 " fill-opacity="1" fill-rule="nonzero"/><path fill="#eadace" d="M 519.894531 302.507812 L 511.414062 316.46875 L 525.371094 324.957031 L 509.472656 321.210938 L 505.707031 337.109375 L 504.355469 320.824219 L 488.078125 322.15625 L 503.136719 315.847656 L 496.84375 300.777344 L 507.503906 313.152344 Z M 519.894531 302.507812 " fill-opacity="1" fill-rule="nonzero"/><path fill="#eadace" d="M 406.761719 775.378906 L 398.289062 789.339844 L 412.238281 797.828125 L 396.339844 794.082031 L 392.574219 809.972656 L 391.230469 793.699219 L 374.945312 795.027344 L 390.011719 788.714844 L 383.71875 773.640625 L 394.378906 786.019531 Z M 406.761719 775.378906 " fill-opacity="1" fill-rule="nonzero"/><path fill="#eadace" d="M 637.21875 360.371094 L 629.132812 365.761719 L 634.515625 373.851562 L 626.890625 367.832031 L 620.855469 375.449219 L 624.230469 366.332031 L 615.113281 362.953125 L 624.828125 363.339844 L 625.226562 353.628906 L 627.855469 362.984375 Z M 637.21875 360.371094 " fill-opacity="1" fill-rule="nonzero"/><path fill="#eadace" d="M 22.1875 518.265625 L 14.097656 523.65625 L 19.480469 531.753906 L 11.855469 525.726562 L 5.820312 533.34375 L 9.191406 524.226562 L 0.0820312 520.847656 L 9.796875 521.238281 L 10.199219 511.523438 L 12.824219 520.886719 Z M 22.1875 518.265625 " fill-opacity="1" fill-rule="nonzero"/><path fill="#eadace" d="M 583.257812 294.933594 L 577.644531 291.726562 L 574.429688 297.332031 L 575.746094 291.003906 L 569.417969 289.679688 L 575.847656 288.980469 L 575.15625 282.550781 L 577.808594 288.449219 L 583.707031 285.800781 L 578.914062 290.144531 Z M 583.257812 294.933594 " fill-opacity="1" fill-rule="nonzero"/><path fill="#eadace" d="M 527.550781 451.644531 L 523.597656 449.382812 L 521.335938 453.335938 L 522.261719 448.875 L 517.808594 447.945312 L 522.335938 447.445312 L 521.84375 442.921875 L 523.710938 447.074219 L 527.863281 445.210938 L 524.496094 448.269531 Z M 527.550781 451.644531 " fill-opacity="1" fill-rule="nonzero"/><path fill="#eadace" d="M 253.117188 283.695312 L 249.164062 281.433594 L 246.902344 285.378906 L 247.828125 280.929688 L 243.375 279.988281 L 247.902344 279.496094 L 247.414062 274.972656 L 249.277344 279.125 L 253.4375 277.261719 L 250.0625 280.324219 Z M 253.117188 283.695312 " fill-opacity="1" fill-rule="nonzero"/><path fill="#eadace" d="M 66.4375 750.777344 L 62.484375 748.523438 L 60.222656 752.46875 L 61.148438 748.011719 L 56.695312 747.078125 L 61.222656 746.585938 L 60.730469 742.054688 L 62.597656 746.207031 L 66.75 744.34375 L 63.382812 747.40625 Z M 66.4375 750.777344 " fill-opacity="1" fill-rule="nonzero"/><path fill="#eadace" d="M 669.730469 789.578125 L 665.777344 787.316406 L 663.507812 791.261719 L 664.4375 786.804688 L 659.980469 785.871094 L 664.511719 785.378906 L 664.019531 780.855469 L 665.890625 785.007812 L 670.042969 783.144531 L 666.667969 786.199219 Z M 669.730469 789.578125 " fill-opacity="1" fill-rule="nonzero"/><path fill="#eadace" d="M 116.351562 447.339844 L 110.734375 444.132812 L 107.519531 449.742188 L 108.835938 443.414062 L 102.507812 442.082031 L 108.9375 441.382812 L 108.246094 434.957031 L 110.902344 440.851562 L 116.796875 438.203125 L 112.011719 442.550781 Z M 116.351562 447.339844 " fill-opacity="1" fill-rule="nonzero"/><path fill="#eadace" d="M 494.054688 556.527344 L 488.445312 553.320312 L 485.226562 558.921875 L 486.550781 552.59375 L 480.222656 551.269531 L 486.640625 550.570312 L 485.949219 544.144531 L 488.605469 550.039062 L 494.5 547.390625 L 489.714844 551.734375 Z M 494.054688 556.527344 " fill-opacity="1" fill-rule="nonzero"/><path fill="#eadace" d="M 760.890625 193.582031 L 755.28125 190.371094 L 752.058594 195.976562 L 753.382812 189.648438 L 747.054688 188.324219 L 753.476562 187.625 L 752.785156 181.195312 L 755.441406 187.09375 L 761.335938 184.445312 L 756.550781 188.789062 Z M 760.890625 193.582031 " fill-opacity="1" fill-rule="nonzero"/><path fill="#eadace" d="M 706.726562 634.546875 L 698.933594 628.742188 L 693.117188 636.535156 L 696.230469 627.324219 L 687.023438 624.203125 L 696.746094 624.316406 L 696.863281 614.597656 L 699.765625 623.878906 L 709.046875 620.992188 L 701.117188 626.613281 Z M 706.726562 634.546875 " fill-opacity="1" fill-rule="nonzero"/><path fill="#eadace" d="M 759.546875 767.765625 L 756.152344 776.871094 L 765.25 780.277344 L 755.539062 779.863281 L 755.109375 789.570312 L 752.503906 780.210938 L 743.144531 782.796875 L 751.242188 777.429688 L 745.886719 769.324219 L 753.492188 775.367188 Z M 759.546875 767.765625 " fill-opacity="1" fill-rule="nonzero"/><path fill="#eadace" d="M 583.710938 747.542969 L 577.285156 748.222656 L 577.957031 754.65625 L 575.320312 748.75 L 569.414062 751.382812 L 574.214844 747.050781 L 569.890625 742.25 L 575.496094 745.46875 L 578.722656 739.871094 L 577.382812 746.199219 Z M 583.710938 747.542969 " fill-opacity="1" fill-rule="nonzero"/><path fill="#eadace" d="M 779.546875 492.828125 L 773.121094 493.511719 L 773.792969 499.941406 L 771.15625 494.039062 L 765.25 496.667969 L 770.050781 492.335938 L 765.726562 487.53125 L 771.332031 490.757812 L 774.558594 485.160156 L 773.21875 491.484375 Z M 779.546875 492.828125 " fill-opacity="1" fill-rule="nonzero"/><path fill="#eadace" d="M 203.683594 778.945312 L 197.257812 779.628906 L 197.929688 786.058594 L 195.292969 780.15625 L 189.390625 782.785156 L 194.191406 778.453125 L 189.863281 773.648438 L 195.46875 776.875 L 198.699219 771.28125 L 197.363281 777.601562 Z M 203.683594 778.945312 " fill-opacity="1" fill-rule="nonzero"/><path fill="#eadace" d="M 116.351562 178.792969 L 110.734375 175.585938 L 107.519531 181.195312 L 108.835938 174.867188 L 102.507812 173.539062 L 108.9375 172.839844 L 108.246094 166.410156 L 110.902344 172.308594 L 116.796875 169.660156 L 112.011719 174.003906 Z M 116.351562 178.792969 " fill-opacity="1" fill-rule="nonzero"/><path fill="#eadace" d="M 310.441406 474.835938 L 304.832031 471.621094 L 301.613281 477.230469 L 302.929688 470.902344 L 296.601562 469.578125 L 303.03125 468.871094 L 302.339844 462.453125 L 304.992188 468.347656 L 310.886719 465.699219 L 306.105469 470.042969 Z M 310.441406 474.835938 " fill-opacity="1" fill-rule="nonzero"/><path fill="#eadace" d="M 354.460938 714.425781 L 348.84375 711.21875 L 345.628906 716.828125 L 346.945312 710.496094 L 340.617188 709.171875 L 347.046875 708.472656 L 346.355469 702.042969 L 349.003906 707.941406 L 354.90625 705.292969 L 350.113281 709.636719 Z M 354.460938 714.425781 " fill-opacity="1" fill-rule="nonzero"/><path fill="#eadace" d="M 760.890625 12.382812 L 755.28125 9.175781 L 752.058594 14.785156 L 753.382812 8.457031 L 747.054688 7.125 L 753.476562 6.429688 L 752.785156 0 L 755.441406 5.894531 L 761.335938 3.246094 L 756.550781 7.59375 Z M 760.890625 12.382812 " fill-opacity="1" fill-rule="nonzero"/><path fill="#eadace" d="M 628.953125 12.382812 L 623.335938 9.175781 L 620.125 14.785156 L 621.441406 8.457031 L 615.113281 7.125 L 621.539062 6.429688 L 620.847656 0 L 623.503906 5.894531 L 629.398438 3.246094 L 624.613281 7.59375 Z M 628.953125 12.382812 " fill-opacity="1" fill-rule="nonzero"/><path fill="#eadace" d="M 61.273438 349.492188 L 55.664062 346.285156 L 52.445312 351.894531 L 53.769531 345.558594 L 47.441406 344.234375 L 53.867188 343.535156 L 53.167969 337.109375 L 55.824219 343.003906 L 61.71875 340.355469 L 56.9375 344.699219 Z M 61.273438 349.492188 " fill-opacity="1" fill-rule="nonzero"/><path fill="#eadace" d="M 173.183594 337.5625 L 164.746094 332.738281 L 159.90625 341.167969 L 161.890625 331.652344 L 152.382812 329.664062 L 162.042969 328.605469 L 161 318.941406 L 164.984375 327.804688 L 173.855469 323.828125 L 166.65625 330.359375 Z M 173.183594 337.5625 " fill-opacity="1" fill-rule="nonzero"/></svg>